<svg width="22" height="28" viewBox="0 0 22 38" fill="none" xmlns="http://www.w3.org/2000/svg">
<path d="M0 32.875L0.479167 37.5L3.58417 34.2917L8.89333 18.4584C7.59 18.1042 6.44 17.3959 5.50083 16.4167L0 32.875ZM16.1192 16.4167C15.18 17.3959 14.0108 18.1042 12.7267 18.4584L18.0358 34.2917L21.1408 37.5L21.6392 32.875L16.1192 16.4167ZM16.445 11.6667C17.02 8.4167 15.295 5.5417 12.7267 4.5417V2.08336C12.7267 0.93753 11.8642 3.05176e-05 10.81 3.05176e-05C9.75583 3.05176e-05 8.89333 0.93753 8.89333 2.08336V4.5417C6.67 5.4167 5.06 7.70836 5.06 10.4167C5.06 14.25 8.24167 17.2917 11.8833 16.5625C14.145 16.1042 16.0042 14.125 16.445 11.6667ZM10.81 12.5C9.75583 12.5 8.89333 11.5625 8.89333 10.4167C8.89333 9.27086 9.75583 8.33336 10.81 8.33336C11.8642 8.33336 12.7267 9.27086 12.7267 10.4167C12.7267 11.5625 11.8642 12.5 10.81 12.5Z" fill="#DDDDDDBF"/>
</svg>
