<svg width="40" height="28" viewBox="0 0 40 38" fill="none" xmlns="http://www.w3.org/2000/svg">
<path d="M39.6484 17.3091L35 12.9512V4.01562C35 3.69824 34.8763 3.42358 34.6289 3.19165C34.3815 2.95972 34.0885 2.84375 33.75 2.84375H18.7891C18.0078 2.13574 16.9531 1.56812 15.625 1.14087C14.2969 0.713623 12.8385 0.5 11.25 0.5C8.82812 0.5 6.76432 0.957764 5.05859 1.87329C3.35286 2.78882 2.5 3.89355 2.5 5.1875C2.5 6.35938 3.21615 7.37866 4.64844 8.24536C6.08073 9.11206 7.86458 9.63086 10 9.80176V14.5625H2.5C1.82292 14.5625 1.23698 14.7944 0.742188 15.2583C0.247396 15.7222 0 16.2715 0 16.9062V21.5938C0 22.2529 0.247396 22.8083 0.742188 23.26C1.23698 23.7117 1.82292 23.9375 2.5 23.9375H10V28.6982C7.86458 28.8691 6.08073 29.3879 4.64844 30.2546C3.21615 31.1213 2.5 32.1406 2.5 33.3125C2.5 34.6064 3.35286 35.7112 5.05859 36.6267C6.76432 37.5422 8.82812 38 11.25 38C13.6719 38 15.7357 37.5422 17.4414 36.6267C19.1471 35.7112 20 34.6064 20 33.3125C20 32.1406 19.2839 31.1213 17.8516 30.2546C16.4193 29.3879 14.6354 28.8691 12.5 28.6982V23.9375H20C20.7031 23.9375 21.2956 23.7117 21.7773 23.26C22.2591 22.8083 22.5 22.2529 22.5 21.5938V19.25H28.2031L32.8906 23.6445C33.125 23.8643 33.4049 23.9741 33.7305 23.9741C34.056 23.9741 34.3359 23.8643 34.5703 23.6445L39.6484 18.8838C39.8828 18.6641 40 18.4016 40 18.0964C40 17.7913 39.8828 17.5288 39.6484 17.3091ZM20 14.5625H12.5V9.80176C14.6354 9.63086 16.4193 9.11206 17.8516 8.24536C19.2839 7.37866 20 6.35938 20 5.1875H32.5V12.9146L28.2422 16.9062H22.5C22.5 16.2715 22.2591 15.7222 21.7773 15.2583C21.2956 14.7944 20.7031 14.5625 20 14.5625Z" fill="#DDDDDDBF" />
</svg>
